/* XPM */
static char *bg[] = {
/* columns rows colors chars-per-pixel */
"32 32 118 2 ",
"   c #2E0B00",
".  c #330E00",
"X  c #2E1403",
"o  c #341401",
"O  c #391601",
"+  c #351902",
"@  c #3B1C03",
"#  c #361C09",
"$  c #3B1E0A",
"%  c #391F10",
"&  c #3B2205",
"*  c #3D230D",
"=  c #3D2413",
"-  c #411D04",
";  c #441F0A",
":  c #481F09",
">  c #432006",
",  c #482704",
"<  c #43230C",
"1  c #4A290E",
"2  c #50300A",
"3  c #412512",
"4  c #452A15",
"5  c #4C2B14",
"6  c #4D3115",
"7  c #503112",
"8  c #53331B",
"9  c #5A341D",
"0  c #5F3D1F",
"q  c #63390F",
"w  c #663D14",
"e  c #6B3D14",
"r  c #6C3F18",
"t  c #573623",
"y  c #5A3B24",
"u  c #613D25",
"i  c #613E29",
"p  c #6D4015",
"a  c #66431E",
"s  c #6D441C",
"d  c #6E491E",
"f  c #72451C",
"g  c #73481E",
"h  c #5F4127",
"j  c #5E412C",
"k  c #644124",
"l  c #6B4423",
"z  c #6E4924",
"x  c #64432C",
"c  c #6B442A",
"v  c #6D4B2B",
"b  c #724622",
"n  c #744C24",
"m  c #794C24",
"M  c #734629",
"N  c #754D2B",
"B  c #794D2B",
"V  c #745025",
"C  c #795125",
"Z  c #74512C",
"A  c #7B522C",
"S  c #7F582E",
"D  c #674934",
"F  c #6E4D32",
"G  c #6C4E38",
"H  c #734E32",
"J  c #784E31",
"K  c #6C5034",
"L  c #6E523A",
"P  c #745233",
"I  c #7B5332",
"U  c #7B5833",
"Y  c #74543B",
"T  c #7A543A",
"R  c #75593C",
"E  c #7C5A3D",
"W  c #765641",
"Q  c #7B5B43",
"!  c #804F24",
"~  c #81532D",
"^  c #84592E",
"/  c #815630",
"(  c #835931",
")  c #885D33",
"_  c #80543B",
"`  c #835E3C",
"'  c #8D6036",
"]  c #93673D",
"[  c #94693E",
"{  c #805E43",
"}  c #836146",
"|  c #89654B",
" . c #9B6E44",
".. c #9C7146",
"X. c #9F744C",
"o. c #9D7B55",
"O. c #A2754C",
"+. c #A6794E",
"@. c #A97B4E",
"#. c #A57B53",
"$. c #AB7E53",
"%. c #A27B5A",
"&. c #AB7F58",
"*. c #B07F54",
"=. c #A68051",
"-. c #AC8256",
";. c #A6845C",
":. c #AC845A",
">. c #AF8A59",
",. c #B08457",
"<. c #B2855B",
"1. c #B5895E",
"2. c #B8895F",
"3. c #B18663",
"4. c #B58B62",
"5. c #BB8D63",
"6. c #B19067",
"7. c #BF9469",
/* pixels */
"N N N P K R + * & & 3 6 R v N P M n b r S A V V n V Z I N @ 1 * ",
"N N N N v R + & & @ < 6 R K P I B A ~ m g d n s b V N P l o < # ",
"N F v F F R + & & @ , 6 P v v Z b B ! m m g A n V A Z Z v O 3 * ",
"H Y W Q R R 6 , & & , 2 Z Z Z A B I J J d C A V Z P P K h 4 3 # ",
"k + X o o ; x H E U U Z Z Z Z Z H J H J f n m n v Z K L j * * * ",
"u o # < $ O { Y E Z P Z z n n N N N H N B m B N N v K R D + * = ",
"y @ 4 4 4   } k k a Z A Z z n N N H M N B m B J H v D L L o = 4 ",
"0 o $ @ -   | H P v U Z Z Z V N N N N N M n N J P G G W G X & < ",
"k O < < > @ ` P P v z l N Z N V J J i B i J _ J H Y W W D X $ # ",
"l 5 5 8 1 7 l c N v A U N Z N N M ! ~ ~ ~ _ J u 9 i x y x 8 y 8 ",
"v P E Y P E P P P v N Z N n n B M ! M M i { i : O ; ; o y x Q K ",
"H H H H P N Z v N N N N N M B A b M ! m M _ T - ; ; ; $ 8 P Y Y ",
"N H H H N N V N N N N H l b B B m B ~ m M J T - - > > & 8 K P P ",
"B J N H N N N N N Z B N M M B B b m m r n P I - - > - @ 8 H F P ",
"N N N N N Z N V N N H H I B / m f m ~ n s M N o O @ @ O 0 P v Z ",
"B B B N Z N N N N N J J B B B B m ] O.O.#.:.;.z b N v v v P N Z ",
"B B B N Z V n Z N B J B M M B n B O.2.,.=.>.>.z V Z Z v Z U Z Z ",
"B B m m N V V N N M J J B B B f g  .,.@.=.>.>.d V V Z Z Z Z z Z ",
"B M m N C V V V M B B B B B A n m  .,.@.=.;.>.d d V d V V A a Z ",
"m C N V A s C s N s Z n n m m p g [ -.@.;.6.=.A a s C V C g A z ",
"V V V N d w U N C b C b g g n n C ..1.4.=.;.o.` N A / ~ S m ~ Z ",
"Z m V m S S 1.-.4.>.1.>.5.4.1.<.X.^ p q z Z Z z f M B n N g B z ",
"Z N N m w r -.$.:.$.$.>.O.O.,.7.5.[ g g a d d n B B B B I M I Z ",
"B B m N b g 5.-.&.$.O.&.&.$.O.$.=.~ p m U Z N P A B M B J N P P ",
"B B M B f e 5.+.O.@. .$.$.$.O.$.<.' f ) C N M M N N H J T M Y F ",
"B B J B m e 5.@.*.5.@.5.*.4.*.2.5.' w n M Z Z N H T _ T Q Y W G ",
"H B B m ! e 5.@.@.*...&.] O.] ] O.( r S b Z I M u c i i i t i y ",
"_ M M J e ! @.*.4.$.*. .r b b b m B B n N I ` . : O < O ; % $ # ",
"_ M r ~ ! ! *.*.$.+.&.O.r s b b z M N z v Z E o ; ; 4 3 3 % % $ ",
"~ B _ / r f 2.*.O.&.&.#.n B Z Z Z U U P v F R o 3 % 4 3 3 3 ; $ ",
"M r r B r e *.5.#.3.<.%.l c v v v P F v P R R # 3 $ % % 3 3 3 $ ",
"~ ! b r ! M *.*.X.3.:.%.H U E E R Q E Y K D L = 4 = % = X # # . "
};
