/* XPM */
static char *clctbl[] = {
/* columns rows colors chars-per-pixel */
"32 32 204 2 ",
"   c #0B0F1A",
".  c #2E0B00",
"X  c #330E00",
"o  c #2E1403",
"O  c #331401",
"+  c #381601",
"@  c #351902",
"#  c #3B1C04",
"$  c #361C09",
"%  c #3B1E0A",
"&  c #3B1F13",
"*  c #3B2205",
"=  c #3D230D",
"-  c #3D2413",
";  c #060F24",
":  c #0B1428",
">  c #131422",
",  c #1F1E2F",
"<  c #111B31",
"1  c #261A26",
"2  c #212224",
"3  c #332624",
"4  c #2E2936",
"5  c #411E04",
"6  c #451F09",
"7  c #421F14",
"8  c #47260A",
"9  c #43230C",
"0  c #50300A",
"q  c #412512",
"w  c #452A15",
"e  c #4C2B14",
"r  c #512E10",
"t  c #4D3115",
"y  c #53331B",
"u  c #5A381B",
"i  c #663D14",
"p  c #6B3D14",
"a  c #6C3F18",
"s  c #573623",
"d  c #5A3B24",
"f  c #573E3F",
"g  c #613D25",
"h  c #613E29",
"j  c #384530",
"k  c #36773D",
"l  c #50411F",
"z  c #6D4015",
"x  c #64421F",
"c  c #6D441C",
"v  c #6F491F",
"b  c #72441B",
"n  c #73491E",
"m  c #454F29",
"M  c #5E412A",
"N  c #56413F",
"B  c #644124",
"V  c #6A4424",
"C  c #654A21",
"Z  c #6E4925",
"A  c #64432C",
"S  c #6B4529",
"D  c #6D4B2C",
"F  c #734623",
"G  c #744C25",
"H  c #794B23",
"J  c #734629",
"K  c #744D2B",
"L  c #794D2B",
"P  c #765025",
"I  c #75512C",
"U  c #7B522C",
"Y  c #7F582E",
"T  c #654736",
"R  c #6D4C32",
"E  c #6C4D39",
"W  c #704733",
"Q  c #734E32",
"!  c #794E31",
"~  c #6C5034",
"^  c #6D5239",
"/  c #745233",
"(  c #7A5332",
")  c #725835",
"_  c #7B5C34",
"`  c #74543B",
"'  c #79553A",
"]  c #75593C",
"[  c #7C5A3D",
"{  c #5F6030",
"}  c #4F793B",
"|  c #312F42",
" . c #383443",
".. c #2C3E52",
"X. c #344055",
"o. c #4E4448",
"O. c #544245",
"+. c #5A4442",
"@. c #4F4D53",
"#. c #674B40",
"$. c #694F45",
"%. c #655740",
"&. c #745641",
"*. c #745D47",
"=. c #7B5A42",
"-. c #705E53",
";. c #546C49",
":. c #7E6647",
">. c #69615D",
",. c #747455",
"<. c #4D5864",
"1. c #625D64",
"2. c #596368",
"3. c #6C6968",
"4. c #746765",
"5. c #6F6C76",
"6. c #757877",
"7. c #76767C",
"8. c #804F24",
"9. c #81522D",
"0. c #815533",
"q. c #825A38",
"w. c #8E6739",
"e. c #93673D",
"r. c #805E43",
"t. c #866349",
"y. c #85684B",
"u. c #9C6E44",
"i. c #966B4B",
"p. c #8E714F",
"a. c #9E744E",
"s. c #856858",
"d. c #906D53",
"f. c #977557",
"g. c #A3754C",
"h. c #A97A4E",
"j. c #A57A53",
"k. c #AB7D53",
"l. c #A67D59",
"z. c #B07F54",
"x. c #8A7668",
"c. c #837C76",
"v. c #977A72",
"b. c #738451",
"n. c #788B6A",
"m. c #AF8346",
"M. c #B5884B",
"N. c #AC8156",
"B. c #AD835C",
"V. c #B2845B",
"C. c #B8875D",
"Z. c #B88A5E",
"A. c #BC9250",
"S. c #B58965",
"D. c #BB8D63",
"F. c #AC8F72",
"G. c #A7927C",
"H. c #B9987D",
"J. c #C58567",
"K. c #C89373",
"L. c #D6AB65",
"P. c #D4A97B",
"I. c #717782",
"U. c #858984",
"Y. c #908C8D",
"T. c #8D908E",
"R. c #99928A",
"E. c #959B99",
"W. c #AB9987",
"Q. c #BC978E",
"!. c #9CA09C",
"~. c #BAA58F",
"^. c #A69EA0",
"/. c #A5AAA9",
"(. c #B6B6B8",
"). c #B3B6BD",
"_. c #B7BAB9",
"`. c #DCAE84",
"'. c #C8AA93",
"]. c #D1A090",
"[. c #D4AB99",
"{. c #DDAD9A",
"}. c #D0B79D",
"|. c #DCABA5",
" X c #D6B3A5",
".X c #D9B7A8",
"XX c #E0BABA",
"oX c #C3CCB9",
"OX c #DCC1B0",
"+X c #CECFCA",
"@X c #D9D7D5",
"#X c #E7CDC1",
"$X c #F1D5CA",
"%X c #E6E0D9",
"&X c #EFE7DE",
"*X c #F5E4DE",
"=X c #F7ECDF",
"-X c #EBEAE6",
";X c #F3EFE7",
":X c #F7EEE6",
">X c #EDF0E6",
",X c #EAF4E8",
"<X c #F2F4E0",
"1X c #F1F1E8",
/* pixels */
"K K K I ~ ] @ * * * = t ] R K ( Z H F a U U P P G P U _ D + e = ",
"K K K K R ] @ * * # 8 t ] D / ( K L 9.H n v n v Z G K I B + 9 % ",
"K D Q R D ] @ * * # 8 t ] D D K F H L H G P Y G P U I K S @ 9 - ",
"Q ` &.=.&.] t 8 9 # 8 0 I I I U ! ! ( ( b P P I I / ) R M w 9 $ ",
"g + o O O 9 A / [ _ _ I I P I I ! Q ! ! b G H G Z / / ^ M * = = ",
"g O $ 9 % + r./ [ I I K G D G I K K Q K L H G K K D ~ ] T $ = - ",
"d # w w e . t.B C x I ) Z I G D K Q K J U K K ( Q D T ` ^ O w w ",
"u + % # 5 . y.R / D U I I G I D K K K K F H J ( / E ^ ^ E o * = ",
"B + 9 9 9 + q./ ( Z D x I E #.#.#.E Q K J ! ( ( W ` &.&.T @ % # ",
"S e t y e r A S I D ( _ N X.X.......+.W W ' Q u y A A d A y d t ",
"D / ' ' / q./ / / A 3.>.6.!.!.!.^.E.2.<.@.T N 9 + 6 6 O s A =.^ ",
"K Q Q / / K R -.E.T.R.W.F.y.p.f.d.y.W.W.R.U.I.| 7 9 6 % s / ` ` ",
"Q Q Q K K Q U.!.x.p._ m.Z.m.`.`.P.S.f.%.;.n.G.E.<.7 9 5 y / / / ",
"K L Q K K ` 6.^ w.M.M.m.A.P.`.K.{.{.}.,.k } { N 5.1 & # y D D / ",
"Q L K K K T v.*._ M.m.A.L.D.D.J.J.K.~.b.m j m s.4.> 4 @ u ( D / ",
"L L L K K R Q.].F.p._ C w.a.Z.e.! y.:.l ^ v.Q.].x.> o.D D ) D I ",
"L L L G K ^ ~. XOX'.[.'.F.0.i.Q y.] H.H..XXX|.[.c.< o.I D Y G I ",
"L L L L G K 7.+X:X$X#X X X{. X X.X{. X$X#X=X<XoXj ; o.I I ) D I ",
"L L H K U P 4._.;X:X:X*X*X*X*X&X*X*X*X>X>X>X>X!.: , N G G U v P ",
"P G G P I c I 4.(.@X1X;X;X;X>X,X>X>X;X;X-X@XY.2 < O.U H P n U Z ",
"P P G P v z _ P -.I.).@X-X>X>X,X,X>X%X@X^.1.> : +.U 0.9.U H 0.P ",
"G P P G Y Y B.N.V.f.1.n./._._._._._.^.1.4   , O.J F L F P F U Z ",
"U K K H i z N.k.V.l.j.*.3.7.6.6.6.6.@.  <  .N K L K L L ( K ( K ",
"K L K L F F D.B.k.k.g.z.&.3 3 1 : ; ; 4 $.K K U ( L J L ! K / / ",
"L L J L a a D.g.g.k.u.k.j.j.a.d.s.$.f [ I G J K K K W ! ' W ' W ",
"L L ! L 8.a J.h.k.C.h.D.k.C.N.V.D.w.i H G K K K ! ! q.' r.E &.E ",
"! ! ! 8.8.p Z.h.h.V.u.V.e.g.e.e.g.0.p ( J K ( D S S h h h s h d ",
"( K h 9.a 8.h.z.C.h.V.i.c n F F G L L G K ( q.X 5 + 7 + 7 % % $ ",
"! L J L n 8.z.h.k.j.V.g.p c Z Z F K G V D I [ O 9 6 w - 7 & % $ ",
"9.L K 9.8.a C.z.g.j.k.g.H K U U I _ / ( D I ] + 9 = q - q q 9 % ",
"L F c H b p C.J.j.S.S.f.V V K D D ~ / D ^ ^ ] * - % - & q q q # ",
"L H F b H F j.V.a.B.B.l.( ' [ ' ] =.=.` ~ ~ ~ - w - - - o $ $ + "
};
