/* XPM */
static char *exit[] = {
/* columns rows colors chars-per-pixel */
"32 32 173 2 ",
"   c #2F0D00",
".  c #330E00",
"X  c #2E1403",
"o  c #331401",
"O  c #391601",
"+  c #351902",
"@  c #3A1C04",
"#  c #361C09",
"$  c #3B1E0A",
"%  c #2D1110",
"&  c #391F10",
"*  c #3B2205",
"=  c #3D230D",
"-  c #3D2413",
";  c #411E04",
":  c #422007",
">  c #482704",
",  c #42230C",
"<  c #4A290E",
"1  c #412512",
"2  c #452A15",
"3  c #4C2B14",
"4  c #4D3115",
"5  c #503112",
"6  c #53331B",
"7  c #5F3D1F",
"8  c #653E14",
"9  c #6D3D12",
"0  c #6C3F18",
"q  c #402621",
"w  c #452A24",
"e  c #553724",
"r  c #5A3B24",
"t  c #613E25",
"y  c #603D29",
"u  c #6D4015",
"i  c #67441E",
"p  c #6C441C",
"a  c #6F491F",
"s  c #72441B",
"d  c #74491E",
"f  c #5F4127",
"g  c #5E412C",
"h  c #53403F",
"j  c #6B4524",
"k  c #6E4A24",
"l  c #64432C",
"z  c #6B4529",
"x  c #6D4B2C",
"c  c #734622",
"v  c #744C25",
"b  c #794B23",
"n  c #724528",
"m  c #754D2B",
"M  c #784D2B",
"N  c #755026",
"B  c #795125",
"V  c #74512B",
"C  c #7B532C",
"Z  c #7F582E",
"A  c #624233",
"S  c #674934",
"D  c #6E4D32",
"F  c #6D4E39",
"G  c #734E32",
"H  c #784F31",
"J  c #6C5034",
"K  c #6E523A",
"L  c #745234",
"P  c #7C5332",
"I  c #7D5832",
"U  c #74543B",
"Y  c #79553A",
"T  c #75593C",
"R  c #7B5A3E",
"E  c #584847",
"W  c #6E5649",
"Q  c #745642",
"!  c #7C5743",
"~  c #745A46",
"^  c #7B5B43",
"/  c #745A4C",
"(  c #6D5A56",
")  c #765E52",
"_  c #746052",
"`  c #7B6355",
"'  c #77645A",
"]  c #78655C",
"[  c #7E6760",
"{  c #7B6A65",
"}  c #7C6C6A",
"|  c #7D716F",
" . c #804F24",
".. c #81522D",
"X. c #815631",
"o. c #845E3C",
"O. c #805E45",
"+. c #9E724D",
"@. c #806758",
"#. c #9E7550",
"$. c #9D7A54",
"%. c #9B7B5B",
"&. c #A4764C",
"*. c #A97A4E",
"=. c #A67A53",
"-. c #AC7D53",
";. c #A47D5B",
":. c #AB7F58",
">. c #B07F54",
",. c #897165",
"<. c #82716E",
"1. c #88776D",
"2. c #9F7C65",
"3. c #987F68",
"4. c #837571",
"5. c #847876",
"6. c #8B7A75",
"7. c #837C7D",
"8. c #8B7D7B",
"9. c #937E76",
"0. c #AC8156",
"q. c #A4845E",
"w. c #AD835C",
"e. c #B3855D",
"r. c #B2885E",
"t. c #B8895F",
"y. c #9C806F",
"u. c #9F8474",
"i. c #94837E",
"p. c #A88467",
"a. c #A88D6F",
"s. c #B18663",
"d. c #BC8D63",
"f. c #A78974",
"g. c #888082",
"h. c #8E878B",
"j. c #928583",
"k. c #998580",
"l. c #9D8981",
"z. c #928B8B",
"x. c #9E8E89",
"c. c #9D908E",
"v. c #A48F8D",
"b. c #A4928A",
"n. c #A8968E",
"m. c #A49690",
"M. c #A59995",
"N. c #AC9C95",
"B. c #A59A99",
"V. c #AEA39B",
"C. c #B4A39C",
"Z. c #BAA29C",
"A. c #B3A8A3",
"S. c #BBABA4",
"D. c #B6ACAA",
"F. c #C2B4AD",
"G. c #C0B4B1",
"H. c #C7B8B1",
"J. c #CABDB5",
"K. c #C5BCB8",
"L. c #C8BEB8",
"P. c #CDC2BB",
"I. c #D2C6BE",
"U. c #D7C5C0",
"Y. c #D6CAC4",
"T. c #DACDC6",
"R. c #D9CEC9",
"E. c #DDD2CC",
"W. c #E0D2CE",
"Q. c #E3D6D1",
"!. c #E4D9D5",
"~. c #E8DBD7",
"^. c #E8DFD9",
/* pixels */
"m m m V J T + * * * = 4 K J x L v v b 0 Z C v N b N C P x @ < = ",
"m m m m D T + * * * < 4 T D L P M M ..b d a k a k N m L j o : $ ",
"m x G m D T + * * + > 5 I W { 6.6.[ ! b b d Z v v C V V z + 1 = ",
"G U Q ~ T T 4 , : * > e ~ | V.H.H.S.j.Y p N C N V L L J f 2 1 # ",
"y o o # o ; l L R R { | | b.P.Q.~.!.D.8.` b b v k D L K g * = = ",
"t o # ; $ O O.~ 5.V.A.n.y.i.C.P.W.~.I.F.B.Q M m V x J U S # - - ",
"t @ 2 2 2   @.z.S.T.E.J.b.C.J.F.D.J.L.K.S.] H H L x D K K o , 2 ",
"7 o $ @ ; % 8.S.R.^.~.I.D.R.!.!.R.L.R.U.F.A.N.} Q D K Q S X * 1 ",
"t O : , > 2 8.Z.U.R.~.R.I.~.^.^.~.!.^.T.P.Q.R.V.} F ! Q S + $ # ",
"j 3 4 6 < h M.A.S.R.Q.Q.W.~.~.~.~.~.E.Y.P.T.E.J.h.A y r A 6 r 3 ",
"m G Y Y L @.N.S.H.Q.E.E.W.!.~.~.^.W.J.F.F.D.J.S.z.w ; o e l ^ L ",
"G G G G G Q 8.n.n.L.E.W.E.W.~.~.~.!.I.I.E.I.S.C.7.w 1 ; 6 U T L ",
"G G G G m { D.H.A.Y.E.R.P.I.W.~.!.!.W.Q.Q.E.S.l.8.h : * 6 J L L ",
"M M M m U h.Y.I.T.~.E.I.I.H.P.!.!.~.!.Q.W.Y.V.u.N.g.w @ 6 L G V ",
"M G M m Q M.H.F.J.I.P.!.Q.T.P.W.!.E.W.Q.E.P.N.i.N.b.E + 7 L x m ",
"M M m m G z.A.C.n.N.U.^.Q.I.Y.E.E.E.E.W.R.I.C.b.b.b.' D z L V V ",
"M M m M v ~ | i.4.8.L.!.!.Q.E.R.P.F.F.P.P.S.V.n.9.6.~ V V I V V ",
"b M M M N N v L G { V.I.E.E.R.P.C.C.C.C.C.C.V.i.{ _ V V V V k V ",
"M M M v N N N N M / 8.N.S.Y.R.H.V.V.V.f.b.b.j.) k k k N N V i V ",
"b N b N C i C p c k R | b.Y.E.H.P.S.l.i.y.a.%.C i a B N B d C k ",
"N v N v a i Z N C c N / x.H.R.R.!.W.C.1.%.q.$.o.m C X.M Z v X.C ",
"N B m N Z Z w.0.r.e.r.p.m.U.Q.~.~.W.K.( k V V v c b M b b c C j ",
"m N v M 8 u 0.=.0.:.0.p.D.E.!.!.I.F.N.L i i k v M M M M P m P m ",
"M M M b c d d.0.0.q.k.b.K.E.!.Y.S.C.5.b I V m C P M n M H x L L ",
"M M M n c 0 t.&.&.3.G.U.U.T.Q.T.F.N.<.,.) m v M m m G H Y y O.G ",
"M H M M b 9 d.*.-.f.G.Y.G.H.E.Q.F.Z.C.C.x.) G m H H X.Y O.F ! F ",
"H H M M  .9 d.*.&.f.v.G.F.S.I.I.F.I.I.S.B.) H n y z y y y e y e ",
"P M n H 0  .*.>.d.2.b.C.S.S.S.S.S.F.A.M.<.U o.. ; O < O 1 ; & O ",
"H M n .. . .>.>.-.*.p.m.B.V.C.C.M.c.6.~ x V R o 1 $ 3 1 1 : & O ",
"....n X.s 0 t.>.&.=.:.#.` <.j.8.] ` Y L V J T o , $ 1 - q 1 , & ",
"M c 0 M 0 9 >.d.*.s.w.=.j k G F z L D x L K T $ 1 $ & & 1 1 1 $ ",
" .n 0 c b b -.s.+.s.p.;.L Y R R T ^ R T J J J - 2 - - - % # O . "
};
