/* XPM */
static char *p_start[] = {
/* columns rows colors chars-per-pixel */
"32 32 188 2 ",
"   c #2E0B00",
".  c #330E00",
"X  c #2E1403",
"o  c #341401",
"O  c #391601",
"+  c #351902",
"@  c #3B1C03",
"#  c #361C09",
"$  c #3B1E0A",
"%  c #391F10",
"&  c #3B2205",
"*  c #3D230D",
"=  c #3D2413",
"-  c #1E2629",
";  c #24262D",
":  c #202E2B",
">  c #342623",
",  c #3A2B2A",
"<  c #283E25",
"1  c #263528",
"2  c #353F2B",
"3  c #252434",
"4  c #2D2633",
"5  c #2E2A33",
"6  c #24263A",
"7  c #2B2C3F",
"8  c #342E39",
"9  c #283835",
"0  c #3E3237",
"q  c #35323B",
"w  c #33393A",
"e  c #411D04",
"r  c #441F0A",
"t  c #481F09",
"y  c #432006",
"u  c #43230C",
"i  c #4A290E",
"p  c #412512",
"a  c #452A15",
"s  c #4C2B14",
"d  c #512E10",
"f  c #4C3016",
"g  c #53331B",
"h  c #5A341D",
"j  c #5F3D1F",
"k  c #63390F",
"l  c #693E15",
"z  c #482F28",
"x  c #4C3725",
"c  c #533523",
"v  c #5B3B25",
"b  c #543B2C",
"n  c #583B2D",
"m  c #453435",
"M  c #553C3A",
"N  c #613D24",
"B  c #613E2B",
"V  c #2B4E27",
"C  c #284230",
"Z  c #324934",
"A  c #385936",
"S  c #6D4015",
"D  c #66431E",
"F  c #6C441C",
"G  c #6E491E",
"H  c #72441B",
"J  c #73491E",
"K  c #5F4127",
"L  c #5E412C",
"P  c #414838",
"I  c #564136",
"U  c #5C4132",
"Y  c #5A473C",
"T  c #644124",
"R  c #6B4524",
"E  c #6D4A24",
"W  c #64432C",
"Q  c #6B442B",
"!  c #6C4B2C",
"~  c #724623",
"^  c #744C25",
"/  c #794B23",
"(  c #734629",
")  c #744D2B",
"_  c #784D2C",
"`  c #755026",
"'  c #795024",
"]  c #74512B",
"[  c #7B522C",
"{  c #7F582E",
"}  c #634333",
"|  c #664A33",
" . c #6D4D32",
".. c #604839",
"X. c #6B4E39",
"o. c #734D32",
"O. c #784F31",
"+. c #6C5134",
"@. c #6E523A",
"#. c #745234",
"$. c #7B5233",
"%. c #7C5833",
"&. c #74543B",
"*. c #7B543A",
"=. c #74593C",
"-. c #7C5A3D",
";. c #2E3041",
":. c #34374D",
">. c #353848",
",. c #383D4C",
"<. c #453C40",
"1. c #493F43",
"2. c #593546",
"3. c #3C474A",
"4. c #3A415A",
"5. c #196049",
"6. c #15754F",
"7. c #5B4B43",
"8. c #584947",
"9. c #4C5045",
"0. c #474050",
"q. c #4E4A55",
"w. c #564F55",
"e. c #4C5150",
"r. c #59535B",
"t. c #604841",
"y. c #695649",
"u. c #765641",
"i. c #7B5C43",
"p. c #795C48",
"a. c #625753",
"s. c #6B5954",
"d. c #6C5E58",
"f. c #406249",
"g. c #496658",
"h. c #7B614D",
"j. c #434962",
"k. c #5E5C60",
"l. c #5D616B",
"z. c #547171",
"x. c #6E666E",
"c. c #6F6D74",
"v. c #7A7375",
"b. c #804F24",
"n. c #81522D",
"m. c #815630",
"M. c #845C32",
"N. c #835E3C",
"B. c #93673D",
"V. c #805E43",
"C. c #886549",
"Z. c #946D4C",
"A. c #9D734D",
"S. c #8F6D51",
"D. c #9E7552",
"F. c #9D7A55",
"G. c #A3754C",
"H. c #A67B4E",
"J. c #A97A4E",
"K. c #A47B53",
"L. c #AB7D53",
"P. c #A47C59",
"I. c #B07F54",
"U. c #8E7768",
"Y. c #3F8065",
"T. c #4A8E72",
"R. c #508075",
"E. c #AC8256",
"W. c #A68358",
"Q. c #AC845A",
"!. c #AF8A59",
"~. c #B3855C",
"^. c #B8895F",
"/. c #AD8660",
"(. c #B18663",
"). c #B48B62",
"_. c #BC8D63",
"`. c #B19067",
"'. c #7E7F90",
"]. c #699384",
"[. c #878386",
"{. c #878896",
"}. c #BC9881",
"|. c #8F94A1",
" X c #9799A2",
".X c #A5A8B5",
"XX c #B0B9C5",
"oX c #C8D1D8",
/* pixels */
") ) ) ] +.=.+ * * & * f @.! Q #.R R ^ l { [ ` ` ^ ` [ $.! @ i * ",
") ) ) ]  .=.+ & & @ i f @.Y 8.y.x.} n./ J G ^ F ~ ` ) #.R o u # ",
") ! o. .+.=.+ & & @ = > e.|. X.X'.w.o./ / J { ^ ` [ ] ] ! + p u ",
"o.&.u.u.=.#.g u & & i > l.oXoXXXXX'.M O.F ' [ ` ] #.#.+.K p p # ",
"N + X o o r Q #.-.%. ., :.'.{..X{.w.o.) H / / ^ ! ] +.@.L * * * ",
"N o # * $ O V.&.-.] b m U.k.1. Xc.} o.) _ ^ _ ) ) ! +.&.| + * = ",
"N @ a a s   C.N T D ) | s.}.U.k.M ( o.( _ / _ O.#.!  .&.@.X p a ",
"j o r @ $   C.! #.! #.! 2 s.v.1.m ( _ ) ( ^ ) O.#. .X.u.| X * u ",
"T O u u y + N.#.#.E ! x V < ; g.3.8.X.r.t.B O.O.o.&.u.u.} + $ # ",
"T d f g i d R Q ) ! W : C V 1 ].T.R.z.g.1.V.O.B h B W v W g v f ",
"! #.*.=.#.V.#.#.[ ! L 0.9 V A T.6.5.;.3 B m.B t . r t o v W i.+.",
") o.o.o.] ) ] ! ) ] W 2.w V g.Y.f.Z 4 4 B m.m.e r u u r g #.&.&.",
"O.O.o.o.) ) ) ) ) ) ) 1.,.1 Z 9 9.U.U B ( $.*.e t y y @ g +.#.#.",
") ) ) ) ) ) ] ) ) ) _ M ,.7 w w c.d.y.l ( _ $.@ e y e e g o.! #.",
"o.) ) _ ) ] ) ^ ) ) o.W :.:.;.P Z - c ~ ~ ( _ o O @ + + T ] ! ] ",
"_ _ _ _ ] ^ ) ] ) ) O.} 4 3 - C < 9.r.Z.K.W.W.E E ) +.! E #.! $.",
"_ _ _ / ` ] ` ) ) ) o.Q ; 3 3 - ; 7.s.K.E.E.W.G ` ` ] ] ] %.` ] ",
"_ _ _ ) ] ` ^ ^ _ ) _ W 3 6 6 6 3 5 p.H.E.!.!.G ` ] ] ` ] +.E ] ",
"_ / _ ` / ` ` ` _ _ ) } ;.6 3 3 6 6 i.H.W.E.Q.G G G ` ` ] [ G ] ",
"' ^ ^ / { D [ F ( F [ M :.3 , z 6 6 h.L.W.`.W.[ D G ` ` ` J [ E ",
"] ` ^ ^ G l %.` ` ^ ` 0.4.3 v v ; 5 F.).F.W.F.N._ [ n.n.[ / m.] ",
"^ ' _ ` { { ~.Q.^.Q.!.y.j.8 P.C.3 4 N k ` ] ] ^ ~ ^ / ( ' J _ E ",
") ` ) / l S E.L.E.E.A.q.j.Y W./.0 6 n J D D E ^ _ ) _ _ $._ $.] ",
"_ _ _ ) ~ J _.E.L.E.C.,.:.p.G.D.0 6 z / %.] ) [ $._ ( _ O.! $.#.",
"_ _ _ _ l l _.J.G.J.u.7 4 Z.G.G.m 3 b M.] ^ ( _ ) ) o.O.*. .o.X.",
"_ _ _ _ / l _.J.I._.V.3 8 P.I.L.t.>.c / ( ) ) ) O.$.*.*.V.o.u.X.",
"O.O.O._ b.l _.J.J.I.N.k.8.A.B.B.C.{.U m.~ ] O.( B R B B B c B n ",
"$._ ( _ l b.J.I.^.J.P.[.t.~ / J R x.7.^ ] $.N.o t O u O r r $ O ",
"n.( B n.b.b.I.I.I.G.P.<.m F ~ R T > q U ! +.-.o r r a p p % % $ ",
"n.n.n.n.H H ^.I.G.P.D.M a. .[ ] | 0.3 q I W #.+ p $ a = a p % $ ",
"( ( l n.l l I._.P.).P...y.n ) ! ! b c x L +.=.$ = $ % % a p p e ",
"_ b.( l b.( I.I.G.(.P.S.W #.-.*.=.i.i.&.+.+.+.= a = = = X # # . "
};
