/* XPM */
static char *wall[] = {
/* columns rows colors chars-per-pixel */
"32 32 145 2 ",
"   c #030202",
".  c #0C0807",
"X  c #170500",
"o  c #150F07",
"O  c #140C0B",
"+  c #1C0F0E",
"@  c #0C170D",
"#  c #0F1D0F",
"$  c #161208",
"%  c #111E10",
"&  c #2E0B00",
"*  c #330E00",
"=  c #2E1403",
"-  c #2E1906",
";  c #211608",
":  c #251A0D",
">  c #2A1C0E",
",  c #331501",
"<  c #391601",
"1  c #351902",
"2  c #3B1C04",
"3  c #331D0A",
"4  c #3C1E0A",
"5  c #261C10",
"6  c #291F10",
"7  c #26171D",
"8  c #331F12",
"9  c #391F10",
"0  c #2A200F",
"q  c #3B2205",
"w  c #34210D",
"e  c #3D230D",
"r  c #292011",
"t  c #342312",
"y  c #3D2413",
"u  c #3D2914",
"i  c #3C2C1C",
"p  c #3F2428",
"a  c #411E04",
"s  c #482704",
"d  c #42230C",
"f  c #4B290E",
"g  c #50300A",
"h  c #5C350F",
"j  c #412512",
"k  c #452A15",
"l  c #4C2B14",
"z  c #402B1A",
"x  c #512E19",
"c  c #4D3115",
"v  c #503112",
"b  c #5A3812",
"n  c #53331B",
"m  c #5E3D1D",
"M  c #643B14",
"N  c #6D3D12",
"B  c #6C3F18",
"V  c #512C29",
"C  c #493421",
"Z  c #573623",
"A  c #523D26",
"S  c #5A3B24",
"D  c #533E2A",
"F  c #613E25",
"G  c #613E29",
"H  c #613430",
"J  c #703D35",
"K  c #2B5E32",
"L  c #306A37",
"P  c #316D38",
"I  c #3B7F3F",
"U  c #6D4015",
"Y  c #66411D",
"T  c #6D441C",
"R  c #6F491F",
"E  c #73491E",
"W  c #5F4127",
"Q  c #5E412C",
"!  c #644224",
"~  c #6B4525",
"^  c #6D4A25",
"/  c #64432C",
"(  c #6C462A",
")  c #6C4A2B",
"_  c #724623",
"`  c #744C25",
"'  c #794B23",
"]  c #714629",
"[  c #754D2C",
"{  c #784D2B",
"}  c #755026",
"|  c #795024",
" . c #75512C",
".. c #7B522C",
"X. c #7F582E",
"o. c #664B33",
"O. c #6E4C32",
"+. c #6C4E38",
"@. c #734E32",
"#. c #784F31",
"$. c #6F5034",
"%. c #6E523A",
"&. c #745234",
"*. c #7B5232",
"=. c #7A5834",
"-. c #74543B",
";. c #79553A",
":. c #75593C",
">. c #7D5A3D",
",. c #3A7F40",
"<. c #765641",
"1. c #7B5A43",
"2. c #804F24",
"3. c #81522D",
"4. c #814639",
"5. c #815630",
"6. c #815830",
"7. c #855E3F",
"8. c #A65B38",
"9. c #8C6139",
"0. c #BA663E",
"q. c #836146",
"w. c #89654B",
"e. c #926A46",
"r. c #9B6E45",
"t. c #966C49",
"y. c #9B734E",
"u. c #A4764C",
"i. c #A7784E",
"p. c #A97A4E",
"a. c #A57A51",
"s. c #AB7D53",
"d. c #A47C5A",
"f. c #B07F54",
"g. c #3B8241",
"h. c #418D47",
"j. c #459548",
"k. c #5CBB4D",
"l. c #5FC14D",
"z. c #63C74D",
"x. c #AC8156",
"c. c #A98058",
"v. c #B2845B",
"b. c #B8895F",
"n. c #BC8D63",
/* pixels */
"[ [ [  .$.:.- q q w d c :.) [ @.` ` ' B X.| | } ` } } =.] 2 f e ",
"[ [ [ [ $.:.1 q q 1 d c :.$.&.=.{ { 3.' R R ` T ^ } [  .( , d 4 ",
"[ [ O.O.O.:.1 q 2 2 s c =.) )  ._ ' { ' ' ` X.` `  .[  .( 1 d t ",
"@.%.<.1.:.:.c s s q s g  . . . .#.#.#.#.T | ..}  .=.-.$.W k d 4 ",
"S 1 = , , a / @.>.=.=. . . .[  .#.#.#.{ _ ' ` ` ^ $.&.%.Q w e e ",
"F , 4 e 4 < 1.;.>. .=. .^ ^ ^ ^ ( ( ( ] } ' ` [ [ ) O.-.o.1 d y ",
"F 2 l k l & q./ ! m  .) w : > 6 6 6 6 t ) _ [ *.&.) o.-.%., j k ",
"m < 4 2 2 & w.@./ w r r # L ,.I ,.,.L % : 3 ] *.&.+.+.:.+.= w d ",
"F < d d s < ;.o.t @ P ,.g.j.k.l.l.k.j.g.L 5 ( ] @.-.1.<.o.1 4 3 ",
"! l v n f f 3 : # P j.k.l.l.z.z.z.z.l.k.g.% 5 > x G H S Q Z S l ",
"( &.;.;.&.-.5 L g.j.k.z.z.z.z.z.z.z.z.l.j.g.P @ X 4 a < A / 1.&.",
"@.@.@.@.) t # g.k.l.z.z.z.z.z.z.z.z.z.z.l.k.j.P o 4 a a n -.-.-.",
"#.@.@.@.( 6 L j.l.z.z.z.z.z.z.z.z.z.z.z.z.z.k.g.@ ; a 2 n $.&.&.",
"[ #.#.[ ) > g.k.z.z.z.z.z.z.z.z.z.z.z.z.z.z.l.j.L $ 2 2 n  .) &.",
"[ [ [ [ ^ r I k.z.z.z.z.z.z.z.z.z.z.z.z.z.z.z.k.I o 1 1 m O.[ &.",
"{ { { [ ^ > I z.z.z.z.z.z.z.z.z.z.z.z.z.z.z.z.l.I > ) ) ^ =.)  .",
"{ { { ` ^ 0 I l.z.z.z.z.z.z.z.z.z.z.z.z.z.z.z.k.g.6 ) )  .=.^  .",
"{ { { { ^ 0 I k.z.z.z.z.z.z.z.z.z.z.z.z.z.z.k.j.P 0 ^  . .=.^  .",
"{ { [ ` ^ 0 P j.k.k.z.z.z.z.z.z.z.z.z.z.z.k.j.P @ w ^ } }  .R } ",
"` | ' } } w @ P g.j.k.z.k.z.k.z.z.z.z.l.k.j.P # - Y | ` | E ..^ ",
"} | } ` R b u : # P h.g.,.I g.j.k.l.k.j.I P @ u ^ ..5.3.X.` 5. .",
"} ` ` } X.X.x.y.D % K % . @ % L ,.,.I L # : t ! _ _ { ` | _ { ^ ",
"[ } [ { M U x.c.y.A i i   7 O @ @ @ @ : w m Y ` { { { { *.{ *.[ ",
"{ { { ` _ E n.x.x.a.r.y.A O V p p 7 ; ~  .}  ...*.[ ] { #.) *.&.",
"{ { { { B B n.u.u.p.r.s.y.i J J H O 3 6. .` ] [ { [ #.#.;.] -.+.",
"{ #.{ { ' N n.p.s.b.p.n.a.c 8.4.H t h ' ` [ [ { #.#.5.;.1.-.<.+.",
"#.#.{ { 2.N n.i.i.v.r.x.9.i 0.4.H 8 M 5.] [ [ ( G ( G H G Z H S ",
"*.{ ] #.B 2.p.f.n.i.v.r.m 3 0.0.J > ~ ` [ *.7.* a < a 4 j 4 4 1 ",
"3.{ _ 4.2.2.f.f.s.a.v.e.- + 4.0.J + 3 ! )  .>.< d a k j j 9 9 4 ",
"#.{ { 5.B B b.f.u.s.y.C O V J 0.4.V O t / &.:., d 9 k j j j j 4 ",
"{ _ B { B N b.n.a.d.A . p + p J H + 7   t o.:.2 j 9 9 9 z j j < ",
"{ ' B _ 2.] s.f.t.D     .   . . .         r o.j z j 8 y , 1 4 * "
};
